<mxfile host="app.diagrams.net" modified="2023-08-25T16:25:22.720Z" agent="Mozilla/5.0 (X11; Linux x86_64; rv:103.0) Gecko/20100101 Firefox/103.0" etag="g0Rz1PMpLnX0Esc5r-7y" version="21.6.9" type="github">
  <diagram id="R2lEEEUBdFMjLlhIrx00" name="Page-1">
    <mxGraphModel dx="1434" dy="718" grid="1" gridSize="10" guides="1" tooltips="1" connect="1" arrows="1" fold="1" page="1" pageScale="1" pageWidth="850" pageHeight="1100" math="0" shadow="0" extFonts="Permanent Marker^https://fonts.googleapis.com/css?family=Permanent+Marker">
      <root>
        <mxCell id="0" />
        <mxCell id="1" parent="0" />
        <mxCell id="D1-jJeG4dWYtl2YqJecn-1" value="DEPARTAMENTO" style="rounded=1;arcSize=10;whiteSpace=wrap;html=1;align=center;" vertex="1" parent="1">
          <mxGeometry x="10" y="80" width="100" height="40" as="geometry" />
        </mxCell>
        <mxCell id="D1-jJeG4dWYtl2YqJecn-2" value="" style="endArrow=none;html=1;rounded=0;dashed=1;dashPattern=1 2;" edge="1" parent="1">
          <mxGeometry relative="1" as="geometry">
            <mxPoint x="110" y="99.5" as="sourcePoint" />
            <mxPoint x="190" y="100" as="targetPoint" />
          </mxGeometry>
        </mxCell>
        <mxCell id="D1-jJeG4dWYtl2YqJecn-3" value="1" style="resizable=0;html=1;whiteSpace=wrap;align=right;verticalAlign=bottom;" connectable="0" vertex="1" parent="D1-jJeG4dWYtl2YqJecn-2">
          <mxGeometry x="1" relative="1" as="geometry" />
        </mxCell>
        <mxCell id="D1-jJeG4dWYtl2YqJecn-4" value="TEM" style="shape=rhombus;perimeter=rhombusPerimeter;whiteSpace=wrap;html=1;align=center;" vertex="1" parent="1">
          <mxGeometry x="190" y="70" width="100" height="60" as="geometry" />
        </mxCell>
        <mxCell id="D1-jJeG4dWYtl2YqJecn-5" value="" style="endArrow=none;html=1;rounded=0;dashed=1;dashPattern=1 2;" edge="1" parent="1">
          <mxGeometry relative="1" as="geometry">
            <mxPoint x="290" y="99.5" as="sourcePoint" />
            <mxPoint x="370" y="100" as="targetPoint" />
          </mxGeometry>
        </mxCell>
        <mxCell id="D1-jJeG4dWYtl2YqJecn-6" value="N" style="resizable=0;html=1;whiteSpace=wrap;align=right;verticalAlign=bottom;" connectable="0" vertex="1" parent="D1-jJeG4dWYtl2YqJecn-5">
          <mxGeometry x="1" relative="1" as="geometry" />
        </mxCell>
        <mxCell id="D1-jJeG4dWYtl2YqJecn-7" value="FUNCIONÁRIO" style="rounded=1;arcSize=10;whiteSpace=wrap;html=1;align=center;" vertex="1" parent="1">
          <mxGeometry x="370" y="80" width="100" height="40" as="geometry" />
        </mxCell>
        <mxCell id="D1-jJeG4dWYtl2YqJecn-8" value="" style="endArrow=none;html=1;rounded=0;dashed=1;dashPattern=1 2;" edge="1" parent="1">
          <mxGeometry relative="1" as="geometry">
            <mxPoint x="470" y="99.5" as="sourcePoint" />
            <mxPoint x="560" y="100" as="targetPoint" />
          </mxGeometry>
        </mxCell>
        <mxCell id="D1-jJeG4dWYtl2YqJecn-9" value="N" style="resizable=0;html=1;whiteSpace=wrap;align=right;verticalAlign=bottom;" connectable="0" vertex="1" parent="D1-jJeG4dWYtl2YqJecn-8">
          <mxGeometry x="1" relative="1" as="geometry" />
        </mxCell>
        <mxCell id="D1-jJeG4dWYtl2YqJecn-10" value="TEM" style="shape=rhombus;perimeter=rhombusPerimeter;whiteSpace=wrap;html=1;align=center;" vertex="1" parent="1">
          <mxGeometry x="560" y="70" width="80" height="60" as="geometry" />
        </mxCell>
        <mxCell id="D1-jJeG4dWYtl2YqJecn-11" value="" style="endArrow=none;html=1;rounded=0;dashed=1;dashPattern=1 2;exitX=0.5;exitY=1;exitDx=0;exitDy=0;" edge="1" parent="1" source="D1-jJeG4dWYtl2YqJecn-10">
          <mxGeometry relative="1" as="geometry">
            <mxPoint x="560" y="190" as="sourcePoint" />
            <mxPoint x="600" y="190" as="targetPoint" />
          </mxGeometry>
        </mxCell>
        <mxCell id="D1-jJeG4dWYtl2YqJecn-12" value="N" style="resizable=0;html=1;whiteSpace=wrap;align=right;verticalAlign=bottom;" connectable="0" vertex="1" parent="D1-jJeG4dWYtl2YqJecn-11">
          <mxGeometry x="1" relative="1" as="geometry" />
        </mxCell>
        <mxCell id="D1-jJeG4dWYtl2YqJecn-13" value="PROJETOS" style="swimlane;childLayout=stackLayout;horizontal=1;startSize=50;horizontalStack=0;rounded=1;fontSize=14;fontStyle=0;strokeWidth=2;resizeParent=0;resizeLast=1;shadow=0;dashed=0;align=center;arcSize=4;whiteSpace=wrap;html=1;" vertex="1" parent="1">
          <mxGeometry x="530" y="190" width="160" height="120" as="geometry" />
        </mxCell>
        <mxCell id="D1-jJeG4dWYtl2YqJecn-14" value="&lt;div&gt;NOME DO FORNECEDOR&lt;/div&gt;&lt;div&gt;DATA DE INICIO&lt;/div&gt;&lt;div&gt;HORAS TRABALHADAS&lt;br&gt;&lt;/div&gt;" style="align=left;strokeColor=none;fillColor=none;spacingLeft=4;fontSize=12;verticalAlign=top;resizable=0;rotatable=0;part=1;html=1;" vertex="1" parent="D1-jJeG4dWYtl2YqJecn-13">
          <mxGeometry y="50" width="160" height="70" as="geometry" />
        </mxCell>
        <mxCell id="D1-jJeG4dWYtl2YqJecn-15" value="" style="endArrow=none;html=1;rounded=0;dashed=1;dashPattern=1 2;exitX=0.463;exitY=0.971;exitDx=0;exitDy=0;exitPerimeter=0;" edge="1" parent="1" source="D1-jJeG4dWYtl2YqJecn-14">
          <mxGeometry relative="1" as="geometry">
            <mxPoint x="597.5" y="310" as="sourcePoint" />
            <mxPoint x="602.5" y="400" as="targetPoint" />
          </mxGeometry>
        </mxCell>
        <mxCell id="D1-jJeG4dWYtl2YqJecn-16" value="1" style="resizable=0;html=1;whiteSpace=wrap;align=right;verticalAlign=bottom;" connectable="0" vertex="1" parent="D1-jJeG4dWYtl2YqJecn-15">
          <mxGeometry x="1" relative="1" as="geometry" />
        </mxCell>
        <mxCell id="D1-jJeG4dWYtl2YqJecn-17" value="TEM" style="shape=rhombus;perimeter=rhombusPerimeter;whiteSpace=wrap;html=1;align=center;" vertex="1" parent="1">
          <mxGeometry x="545" y="400" width="110" height="50" as="geometry" />
        </mxCell>
        <mxCell id="D1-jJeG4dWYtl2YqJecn-18" value="" style="endArrow=none;html=1;rounded=0;dashed=1;dashPattern=1 2;exitX=0;exitY=0.5;exitDx=0;exitDy=0;" edge="1" parent="1" source="D1-jJeG4dWYtl2YqJecn-17">
          <mxGeometry relative="1" as="geometry">
            <mxPoint x="500" y="395" as="sourcePoint" />
            <mxPoint x="470" y="425" as="targetPoint" />
          </mxGeometry>
        </mxCell>
        <mxCell id="D1-jJeG4dWYtl2YqJecn-19" value="N" style="resizable=0;html=1;whiteSpace=wrap;align=right;verticalAlign=bottom;" connectable="0" vertex="1" parent="D1-jJeG4dWYtl2YqJecn-18">
          <mxGeometry x="1" relative="1" as="geometry" />
        </mxCell>
        <mxCell id="D1-jJeG4dWYtl2YqJecn-20" value="PEÇAS" style="rounded=1;arcSize=10;whiteSpace=wrap;html=1;align=center;" vertex="1" parent="1">
          <mxGeometry x="370" y="405" width="100" height="40" as="geometry" />
        </mxCell>
        <mxCell id="D1-jJeG4dWYtl2YqJecn-21" value="TEM" style="shape=rhombus;perimeter=rhombusPerimeter;whiteSpace=wrap;html=1;align=center;" vertex="1" parent="1">
          <mxGeometry x="365" y="510" width="120" height="60" as="geometry" />
        </mxCell>
        <mxCell id="D1-jJeG4dWYtl2YqJecn-22" value="TEM" style="shape=rhombus;perimeter=rhombusPerimeter;whiteSpace=wrap;html=1;align=center;" vertex="1" parent="1">
          <mxGeometry x="190" y="395" width="90" height="60" as="geometry" />
        </mxCell>
        <mxCell id="D1-jJeG4dWYtl2YqJecn-23" value="" style="endArrow=none;html=1;rounded=0;dashed=1;dashPattern=1 2;" edge="1" parent="1">
          <mxGeometry relative="1" as="geometry">
            <mxPoint x="424" y="445" as="sourcePoint" />
            <mxPoint x="424" y="505" as="targetPoint" />
          </mxGeometry>
        </mxCell>
        <mxCell id="D1-jJeG4dWYtl2YqJecn-24" value="1" style="resizable=0;html=1;whiteSpace=wrap;align=right;verticalAlign=bottom;" connectable="0" vertex="1" parent="D1-jJeG4dWYtl2YqJecn-23">
          <mxGeometry x="1" relative="1" as="geometry" />
        </mxCell>
        <mxCell id="D1-jJeG4dWYtl2YqJecn-25" value="" style="endArrow=none;html=1;rounded=0;dashed=1;dashPattern=1 2;" edge="1" parent="1">
          <mxGeometry relative="1" as="geometry">
            <mxPoint x="280" y="424.5" as="sourcePoint" />
            <mxPoint x="370" y="425" as="targetPoint" />
          </mxGeometry>
        </mxCell>
        <mxCell id="D1-jJeG4dWYtl2YqJecn-26" value="N" style="resizable=0;html=1;whiteSpace=wrap;align=right;verticalAlign=bottom;" connectable="0" vertex="1" parent="D1-jJeG4dWYtl2YqJecn-25">
          <mxGeometry x="1" relative="1" as="geometry" />
        </mxCell>
        <mxCell id="D1-jJeG4dWYtl2YqJecn-27" value="" style="endArrow=none;html=1;rounded=0;dashed=1;dashPattern=1 2;" edge="1" parent="1">
          <mxGeometry relative="1" as="geometry">
            <mxPoint x="100" y="424.5" as="sourcePoint" />
            <mxPoint x="190" y="424.5" as="targetPoint" />
          </mxGeometry>
        </mxCell>
        <mxCell id="D1-jJeG4dWYtl2YqJecn-28" value="1" style="resizable=0;html=1;whiteSpace=wrap;align=right;verticalAlign=bottom;" connectable="0" vertex="1" parent="D1-jJeG4dWYtl2YqJecn-27">
          <mxGeometry x="1" relative="1" as="geometry" />
        </mxCell>
        <mxCell id="D1-jJeG4dWYtl2YqJecn-29" value="DEPOSITO" style="rounded=1;arcSize=10;whiteSpace=wrap;html=1;align=center;" vertex="1" parent="1">
          <mxGeometry x="10" y="405" width="100" height="40" as="geometry" />
        </mxCell>
        <mxCell id="D1-jJeG4dWYtl2YqJecn-30" value="" style="endArrow=none;html=1;rounded=0;dashed=1;dashPattern=1 2;" edge="1" parent="1">
          <mxGeometry relative="1" as="geometry">
            <mxPoint x="485" y="539.5" as="sourcePoint" />
            <mxPoint x="565" y="539.5" as="targetPoint" />
          </mxGeometry>
        </mxCell>
        <mxCell id="D1-jJeG4dWYtl2YqJecn-31" value="N" style="resizable=0;html=1;whiteSpace=wrap;align=right;verticalAlign=bottom;" connectable="0" vertex="1" parent="D1-jJeG4dWYtl2YqJecn-30">
          <mxGeometry x="1" relative="1" as="geometry" />
        </mxCell>
        <mxCell id="D1-jJeG4dWYtl2YqJecn-32" value="FORNECEDOR" style="rounded=1;arcSize=10;whiteSpace=wrap;html=1;align=center;" vertex="1" parent="1">
          <mxGeometry x="570" y="520" width="100" height="40" as="geometry" />
        </mxCell>
      </root>
    </mxGraphModel>
  </diagram>
</mxfile>
